# xmcd
#
# Track frame offsets:
#	150
#	12688
#	28400
#	39138
#	55680
#	65450
#	80548
#	95268
#	107555
#	119166
#	134334
#	148282
#
# Disc length: 2187 seconds
#
# Revision: 1
# Processed by: cddbd v1.4PL0 Copyright (c) Steve Scherf et al.
# Submitted via: CDmax 1.9
#
DISCID=ab08890c
DTITLE=Peter Tschernig - Ich fahr' das Taxi 408
DYEAR=1980
DGENRE=Country
TTITLE0=Gut dreißig Jahre bin ich alt
TTITLE1=Mein erstes selbstverdientes Geld
TTITLE2=Ein Freund, mein Freund
TTITLE3=Ich bin am Ende mit meinem Latein
TTITLE4=Also dann - alter Junge
TTITLE5=Im D404
TTITLE6=Taxi 408
TTITLE7=Die falsche Spur
TTITLE8=Die Woche fängt ja gut an
TTITLE9=Leb wohl, altes Haus
TTITLE10=Ich muß die was gestehn
TTITLE11=Schlaf schön, Rosmarie
EXTD=
EXTT0=
EXTT1=
EXTT2=
EXTT3=
EXTT4=
EXTT5=
EXTT6=
EXTT7=
EXTT8=
EXTT9=
EXTT10=
EXTT11=
PLAYORDER=
